HIERARCHY
ROOT Hips
{
	OFFSET 0.000000 0.000000 0.000000
	CHANNELS 6 Xposition Yposition Zposition Zrotation Xrotation Yrotation
	JOINT Spine
	{
		OFFSET 0.000000 0.059888 0.006665
		CHANNELS 6 Xposition Yposition Zposition Zrotation Xrotation Yrotation
		JOINT Chest
		{
			OFFSET 0.000000 0.125681 -0.015911
			CHANNELS 6 Xposition Yposition Zposition Zrotation Xrotation Yrotation
			JOINT UpperChest
			{
				OFFSET 0.000000 0.122768 -0.001652
				CHANNELS 6 Xposition Yposition Zposition Zrotation Xrotation Yrotation
				JOINT Neck
				{
					OFFSET 0.000000 0.155865 0.008735
					CHANNELS 6 Xposition Yposition Zposition Zrotation Xrotation Yrotation
					JOINT Head
					{
						OFFSET 0.000000 0.095969 -0.000410
						CHANNELS 6 Xposition Yposition Zposition Zrotation Xrotation Yrotation
						JOINT LeftEye
						{
							OFFSET 0.015267 0.059218 0.021494
							CHANNELS 6 Xposition Yposition Zposition Zrotation Xrotation Yrotation
							End Site
							{
								OFFSET 0.015267 0.059218 0.021494
							}
						}
						JOINT RightEye
						{
							OFFSET -0.015267 0.059218 0.021494
							CHANNELS 6 Xposition Yposition Zposition Zrotation Xrotation Yrotation
							End Site
							{
								OFFSET -0.015267 0.059218 0.021494
							}
						}
					}
				}
				JOINT LeftShoulder
				{
					OFFSET 0.025383 0.124268 0.007699
					CHANNELS 6 Xposition Yposition Zposition Zrotation Xrotation Yrotation
					JOINT LeftUpperArm
					{
						OFFSET 0.136062 0.000000 0.000000
						CHANNELS 6 Xposition Yposition Zposition Zrotation Xrotation Yrotation
						JOINT LeftLowerArm
						{
							OFFSET 0.225446 0.000000 0.000000
							CHANNELS 6 Xposition Yposition Zposition Zrotation Xrotation Yrotation
							JOINT LeftHand
							{
								OFFSET 0.256325 0.000003 0.000015
								CHANNELS 6 Xposition Yposition Zposition Zrotation Xrotation Yrotation
								JOINT LeftIndexProximal
								{
									OFFSET 0.074229 0.008101 0.022282
									CHANNELS 6 Xposition Yposition Zposition Zrotation Xrotation Yrotation
									JOINT LeftIndexIntermediate
									{
										OFFSET 0.037712 0.000000 -0.000001
										CHANNELS 6 Xposition Yposition Zposition Zrotation Xrotation Yrotation
										JOINT LeftIndexDistal
										{
											OFFSET 0.023218 0.000022 0.000021
											CHANNELS 6 Xposition Yposition Zposition Zrotation Xrotation Yrotation
											End Site
											{
												OFFSET 0.023218 0.000022 0.000021
											}
										}
									}
								}
								JOINT LeftLittleProximal
								{
									OFFSET 0.069261 0.008101 -0.033073
									CHANNELS 6 Xposition Yposition Zposition Zrotation Xrotation Yrotation
									JOINT LeftLittleIntermediate
									{
										OFFSET 0.035643 0.000000 0.000000
										CHANNELS 6 Xposition Yposition Zposition Zrotation Xrotation Yrotation
										JOINT LeftLittleDistal
										{
											OFFSET 0.020542 0.000000 0.000000
											CHANNELS 6 Xposition Yposition Zposition Zrotation Xrotation Yrotation
											End Site
											{
												OFFSET 0.020542 0.000000 0.000000
											}
										}
									}
								}
								JOINT LeftMiddleProximal
								{
									OFFSET 0.075240 0.008101 0.002320
									CHANNELS 6 Xposition Yposition Zposition Zrotation Xrotation Yrotation
									JOINT LeftMiddleIntermediate
									{
										OFFSET 0.042007 0.000000 0.000000
										CHANNELS 6 Xposition Yposition Zposition Zrotation Xrotation Yrotation
										JOINT LeftMiddleDistal
										{
											OFFSET 0.025915 0.000000 0.000000
											CHANNELS 6 Xposition Yposition Zposition Zrotation Xrotation Yrotation
											End Site
											{
												OFFSET 0.025915 0.000000 0.000000
											}
										}
									}
								}
								JOINT LeftRingProximal
								{
									OFFSET 0.074383 0.008101 -0.015403
									CHANNELS 6 Xposition Yposition Zposition Zrotation Xrotation Yrotation
									JOINT LeftRingIntermediate
									{
										OFFSET 0.038967 0.000000 0.000000
										CHANNELS 6 Xposition Yposition Zposition Zrotation Xrotation Yrotation
										JOINT LeftRingDistal
										{
											OFFSET 0.022488 0.000000 0.000000
											CHANNELS 6 Xposition Yposition Zposition Zrotation Xrotation Yrotation
											End Site
											{
												OFFSET 0.022488 0.000000 0.000000
											}
										}
									}
								}
								JOINT LeftThumbProximal
								{
									OFFSET 0.003995 -0.010985 0.018096
									CHANNELS 6 Xposition Yposition Zposition Zrotation Xrotation Yrotation
									JOINT LeftThumbIntermediate
									{
										OFFSET 0.052819 -0.000008 -0.000074
										CHANNELS 6 Xposition Yposition Zposition Zrotation Xrotation Yrotation
										JOINT LeftThumbDistal
										{
											OFFSET 0.032489 0.000042 -0.000035
											CHANNELS 6 Xposition Yposition Zposition Zrotation Xrotation Yrotation
											End Site
											{
												OFFSET 0.032489 0.000042 -0.000035
											}
										}
									}
								}
							}
						}
					}
				}
				JOINT RightShoulder
				{
					OFFSET -0.025383 0.124268 0.007699
					CHANNELS 6 Xposition Yposition Zposition Zrotation Xrotation Yrotation
					JOINT RightUpperArm
					{
						OFFSET -0.136062 0.000000 0.000000
						CHANNELS 6 Xposition Yposition Zposition Zrotation Xrotation Yrotation
						JOINT RightLowerArm
						{
							OFFSET -0.225446 0.000000 0.000000
							CHANNELS 6 Xposition Yposition Zposition Zrotation Xrotation Yrotation
							JOINT RightHand
							{
								OFFSET -0.256325 0.000003 0.000015
								CHANNELS 6 Xposition Yposition Zposition Zrotation Xrotation Yrotation
								JOINT RightIndexProximal
								{
									OFFSET -0.074229 0.008101 0.022282
									CHANNELS 6 Xposition Yposition Zposition Zrotation Xrotation Yrotation
									JOINT RightIndexIntermediate
									{
										OFFSET -0.037712 0.000000 -0.000001
										CHANNELS 6 Xposition Yposition Zposition Zrotation Xrotation Yrotation
										JOINT RightIndexDistal
										{
											OFFSET -0.023218 0.000022 0.000021
											CHANNELS 6 Xposition Yposition Zposition Zrotation Xrotation Yrotation
											End Site
											{
												OFFSET -0.023218 0.000022 0.000021
											}
										}
									}
								}
								JOINT RightLittleProximal
								{
									OFFSET -0.069261 0.008101 -0.033073
									CHANNELS 6 Xposition Yposition Zposition Zrotation Xrotation Yrotation
									JOINT RightLittleIntermediate
									{
										OFFSET -0.035643 0.000000 0.000000
										CHANNELS 6 Xposition Yposition Zposition Zrotation Xrotation Yrotation
										JOINT RightLittleDistal
										{
											OFFSET -0.020542 0.000000 0.000000
											CHANNELS 6 Xposition Yposition Zposition Zrotation Xrotation Yrotation
											End Site
											{
												OFFSET -0.020542 0.000000 0.000000
											}
										}
									}
								}
								JOINT RightMiddleProximal
								{
									OFFSET -0.075240 0.008101 0.002320
									CHANNELS 6 Xposition Yposition Zposition Zrotation Xrotation Yrotation
									JOINT RightMiddleIntermediate
									{
										OFFSET -0.042007 0.000000 0.000000
										CHANNELS 6 Xposition Yposition Zposition Zrotation Xrotation Yrotation
										JOINT RightMiddleDistal
										{
											OFFSET -0.025915 0.000000 0.000000
											CHANNELS 6 Xposition Yposition Zposition Zrotation Xrotation Yrotation
											End Site
											{
												OFFSET -0.025915 0.000000 0.000000
											}
										}
									}
								}
								JOINT RightRingProximal
								{
									OFFSET -0.074383 0.008101 -0.015403
									CHANNELS 6 Xposition Yposition Zposition Zrotation Xrotation Yrotation
									JOINT RightRingIntermediate
									{
										OFFSET -0.038967 0.000000 0.000000
										CHANNELS 6 Xposition Yposition Zposition Zrotation Xrotation Yrotation
										JOINT RightRingDistal
										{
											OFFSET -0.022488 0.000000 0.000000
											CHANNELS 6 Xposition Yposition Zposition Zrotation Xrotation Yrotation
											End Site
											{
												OFFSET -0.022488 0.000000 0.000000
											}
										}
									}
								}
								JOINT RightThumbProximal
								{
									OFFSET -0.003995 -0.010985 0.018096
									CHANNELS 6 Xposition Yposition Zposition Zrotation Xrotation Yrotation
									JOINT RightThumbIntermediate
									{
										OFFSET -0.052819 -0.000008 -0.000074
										CHANNELS 6 Xposition Yposition Zposition Zrotation Xrotation Yrotation
										JOINT RightThumbDistal
										{
											OFFSET -0.032489 0.000042 -0.000035
											CHANNELS 6 Xposition Yposition Zposition Zrotation Xrotation Yrotation
											End Site
											{
												OFFSET -0.032489 0.000042 -0.000035
											}
										}
									}
								}
							}
						}
					}
				}
			}
		}
	}
	JOINT LeftUpperLeg
	{
		OFFSET 0.087143 -0.045243 0.001548
		CHANNELS 6 Xposition Yposition Zposition Zrotation Xrotation Yrotation
		JOINT LeftLowerLeg
		{
			OFFSET 0.000000 -0.394432 -0.000001
			CHANNELS 6 Xposition Yposition Zposition Zrotation Xrotation Yrotation
			JOINT LeftFoot
			{
				OFFSET 0.000000 -0.466446 0.003058
				CHANNELS 6 Xposition Yposition Zposition Zrotation Xrotation Yrotation
				JOINT LeftToes
				{
					OFFSET 0.000000 -0.079218 0.140851
					CHANNELS 6 Xposition Yposition Zposition Zrotation Xrotation Yrotation
					End Site
					{
						OFFSET 0.000000 -0.079218 0.140851
					}
				}
			}
		}
	}
	JOINT RightUpperLeg
	{
		OFFSET -0.087143 -0.045243 0.001548
		CHANNELS 6 Xposition Yposition Zposition Zrotation Xrotation Yrotation
		JOINT RightLowerLeg
		{
			OFFSET 0.000000 -0.394432 -0.000001
			CHANNELS 6 Xposition Yposition Zposition Zrotation Xrotation Yrotation
			JOINT RightFoot
			{
				OFFSET 0.000000 -0.466446 0.003058
				CHANNELS 6 Xposition Yposition Zposition Zrotation Xrotation Yrotation
				JOINT RightToes
				{
					OFFSET 0.000000 -0.079218 0.140851
					CHANNELS 6 Xposition Yposition Zposition Zrotation Xrotation Yrotation
					End Site
					{
						OFFSET 0.000000 -0.079218 0.140851
					}
				}
			}
		}
	}
}
MOTION
Frames: 4
Frame Time: 0.041667
0.129855 1.023103 0.013075 -2.069995 11.523342 8.223754 0.000000 0.059888 0.006665 7.383370 7.202582 -2.346606 -0.000000 0.125681 -0.015911 7.167944 0.381002 0.257506 -0.000000 0.122768 -0.001652 -0.000007 -12.397651 -0.000025 -0.000000 0.155865 0.008735 -1.376451 20.282438 1.131498 -0.000000 0.095969 -0.000410 -9.081739 8.570528 9.304687 0.015267 0.059218 0.021494 -1.701131 3.586990 21.747932 -0.015267 0.059218 0.021494 1.701133 3.587004 -21.747923 0.025383 0.124268 0.007699 40.610068 -3.027792 14.448138 0.136062 -0.000000 0.000000 -35.914965 13.472690 -23.485288 0.225446 -0.000000 -0.000000 -20.585695 58.180330 -86.851285 0.256325 0.000003 0.000015 14.675763 24.047291 -12.021329 0.074229 0.008101 0.022282 -0.012964 0.667619 1.112106 0.037712 -0.000000 -0.000001 -1.679193 1.282859 0.674524 0.023218 0.000022 0.000021 -0.334987 1.286449 -0.710996 0.069261 0.008101 -0.033073 0.000010 -0.000044 -0.000001 0.035643 0.000000 -0.000000 0.000002 -0.000002 0.000001 0.020542 0.000000 0.000000 0.890201 -0.008564 -1.101171 0.075240 0.008101 0.002320 0.000003 -0.000006 -0.000007 0.042007 0.000000 -0.000000 0.000003 0.000042 -0.000014 0.025915 -0.000000 0.000000 0.000005 0.000041 -0.000014 0.074383 0.008101 -0.015403 0.000003 0.000015 0.000004 0.038967 -0.000000 -0.000000 0.000003 -0.000002 -0.000000 0.022488 0.000000 0.000000 -0.712573 -0.008158 1.310731 0.003995 -0.010985 0.018096 86.199494 49.487521 -89.646574 0.052819 -0.000008 -0.000074 -2.573037 -0.739918 0.463022 0.032489 0.000042 -0.000035 4.590285 -0.705070 -0.717108 -0.025383 0.124268 0.007699 36.589699 -2.967907 -16.656728 -0.136062 -0.000000 0.000000 30.814648 15.101982 6.235993 -0.225446 -0.000000 -0.000000 1.578934 -4.352372 33.188115 -0.256325 0.000003 0.000015 0.152966 33.494766 8.408146 -0.074229 0.008101 0.022282 0.012969 0.667617 -1.112103 -0.037712 0.000000 -0.000001 1.679197 1.282860 -0.674521 -0.023218 0.000022 0.000021 0.334984 1.286453 0.710998 -0.069261 0.008101 -0.033073 -0.000004 -0.000041 -0.000001 -0.035643 -0.000000 0.000000 -0.000002 0.000003 -0.000003 -0.020542 0.000000 0.000000 -0.890202 -0.008558 1.101171 -0.075240 0.008101 0.002320 0.000001 -0.000009 0.000006 -0.042007 0.000000 0.000000 -0.000003 0.000042 0.000010 -0.025915 -0.000000 -0.000000 -0.000004 0.000036 0.000010 -0.074383 0.008101 -0.015403 0.000002 0.000015 -0.000003 -0.038967 -0.000000 -0.000000 -0.000003 0.000002 -0.000001 -0.022488 0.000000 -0.000000 0.712573 -0.008160 -1.310730 -0.003995 -0.010985 0.018096 -86.199433 49.487517 89.646581 -0.052819 -0.000008 -0.000074 2.573037 -0.739909 -0.463020 -0.032489 0.000042 -0.000035 -4.590279 -0.705069 0.717113 0.087143 -0.045243 0.001548 -5.684027 -12.671489 -1.250775 -0.000000 -0.394432 -0.000001 -3.013896 37.446085 4.937660 0.000000 -0.466446 0.003058 3.523015 -10.072603 20.078991 -0.000000 -0.079218 0.140851 0.000003 0.248283 -0.000001 -0.087143 -0.045243 0.001548 -10.978820 -21.614159 -4.087345 0.000000 -0.394432 -0.000001 -19.131309 51.645065 23.862816 0.000000 -0.466446 0.003058 0.731658 -2.714387 17.377543 0.000000 -0.079218 0.140851 -0.000000 0.248283 -0.000000 
0.125168 1.016326 0.024032 -0.305174 10.129623 11.331048 0.000000 0.059888 0.006665 6.061535 7.331022 -1.625471 -0.000000 0.125681 -0.015911 5.846223 0.397422 -0.199045 0.000000 0.122768 -0.001652 -0.000003 -12.397639 -0.000024 -0.000000 0.155865 0.008735 -1.158215 20.076487 1.333559 0.000000 0.095969 -0.000410 -8.692663 8.576779 12.879979 0.015267 0.059218 0.021494 -1.701134 3.586990 21.747932 -0.015267 0.059218 0.021494 1.701134 3.587007 -21.747923 0.025383 0.124268 0.007699 46.241395 -2.881905 13.375586 0.136062 0.000000 -0.000000 -34.047236 7.088869 -27.764808 0.225446 0.000000 -0.000000 -19.712728 53.052033 -83.408890 0.256325 0.000003 0.000015 11.576340 22.739740 -12.327892 0.074229 0.008101 0.022282 -0.012966 0.667626 1.112106 0.037712 -0.000000 -0.000001 -1.679194 1.282862 0.674522 0.023218 0.000022 0.000021 -0.334982 1.286452 -0.710998 0.069261 0.008101 -0.033073 0.000003 -0.000037 0.000001 0.035643 0.000000 0.000000 -0.000001 -0.000001 0.000001 0.020542 0.000000 0.000000 0.890206 -0.008565 -1.101173 0.075240 0.008101 0.002320 -0.000000 -0.000005 -0.000008 0.042007 -0.000000 -0.000000 0.000004 0.000040 -0.000013 0.025915 -0.000000 0.000000 0.000005 0.000037 -0.000011 0.074383 0.008101 -0.015403 -0.000001 0.000015 0.000004 0.038967 -0.000000 0.000000 0.000002 -0.000003 0.000002 0.022488 0.000000 0.000000 -0.712572 -0.008161 1.310728 0.003995 -0.010985 0.018096 86.199487 49.487524 -89.646581 0.052819 -0.000008 -0.000074 -2.573036 -0.739915 0.463022 0.032489 0.000042 -0.000035 4.590281 -0.705072 -0.717111 -0.025383 0.124268 0.007699 42.910500 -2.820228 -15.843242 -0.136062 -0.000000 0.000000 29.347591 12.801230 5.151353 -0.225446 0.000000 0.000000 2.083641 -24.215787 26.996685 -0.256325 0.000003 0.000015 -1.409673 53.079114 3.837908 -0.074229 0.008101 0.022282 0.012969 0.667616 -1.112106 -0.037712 0.000000 -0.000001 1.679193 1.282864 -0.674522 -0.023218 0.000022 0.000021 0.334983 1.286455 0.710999 -0.069261 0.008101 -0.033073 -0.000005 -0.000043 -0.000000 -0.035643 0.000000 -0.000000 -0.000005 -0.000002 -0.000001 -0.020542 0.000000 -0.000000 -0.890204 -0.008564 1.101173 -0.075240 0.008101 0.002320 0.000001 -0.000012 0.000006 -0.042007 -0.000000 0.000000 -0.000002 0.000038 0.000013 -0.025915 -0.000000 0.000000 -0.000002 0.000039 0.000014 -0.074383 0.008101 -0.015403 0.000002 0.000012 -0.000005 -0.038967 0.000000 -0.000000 -0.000002 -0.000001 -0.000001 -0.022488 0.000000 -0.000000 0.712572 -0.008162 -1.310729 -0.003995 -0.010985 0.018096 -86.199433 49.487521 89.646581 -0.052819 -0.000008 -0.000074 2.573040 -0.739910 -0.463023 -0.032489 0.000042 -0.000035 -4.590285 -0.705064 0.717109 0.087143 -0.045243 0.001548 -6.905856 -10.580570 -1.274018 0.000000 -0.394432 -0.000001 -1.990591 37.940598 3.230371 -0.000000 -0.466446 0.003058 3.508926 -11.781430 17.227959 -0.000000 -0.079218 0.140851 0.000003 0.248290 0.000002 -0.087143 -0.045243 0.001548 -10.683692 -18.155602 -3.364239 0.000000 -0.394432 -0.000001 -19.889193 50.051763 25.263319 -0.000000 -0.466446 0.003058 1.661275 -6.525832 15.147795 -0.000000 -0.079218 0.140851 0.000003 0.248285 -0.000001 
0.119279 1.008874 0.030528 1.410104 9.022320 14.699617 0.000000 0.059888 0.006665 4.515926 7.649404 -0.289658 0.000000 0.125681 -0.015911 4.368231 0.618950 -0.563658 0.000000 0.122768 -0.001652 -0.000002 -12.397650 -0.000026 0.000000 0.155865 0.008735 -1.346897 19.764952 1.422500 -0.000000 0.095969 -0.000410 -7.592900 8.408146 15.508995 0.015267 0.059218 0.021494 -1.701128 3.586990 21.747935 -0.015267 0.059218 0.021494 1.701135 3.587004 -21.747922 0.025383 0.124268 0.007699 50.458863 -2.886127 12.941563 0.136062 -0.000000 0.000000 -32.854695 0.135575 -32.350300 0.225446 0.000000 -0.000000 -17.840565 46.584141 -77.121852 0.256325 0.000003 0.000015 6.766525 21.333473 -13.226085 0.074229 0.008101 0.022282 -0.012970 0.667618 1.112102 0.037712 0.000000 -0.000001 -1.679194 1.282866 0.674518 0.023218 0.000022 0.000021 -0.334981 1.286454 -0.710999 0.069261 0.008101 -0.033073 -0.000000 -0.000045 -0.000001 0.035643 -0.000000 0.000000 0.000002 -0.000000 0.000002 0.020542 -0.000000 -0.000000 0.890205 -0.008559 -1.101171 0.075240 0.008101 0.002320 -0.000001 -0.000010 -0.000009 0.042007 0.000000 0.000000 0.000002 0.000037 -0.000013 0.025915 0.000000 0.000000 0.000002 0.000040 -0.000012 0.074383 0.008101 -0.015403 -0.000001 0.000012 0.000002 0.038967 0.000000 0.000000 0.000003 -0.000000 0.000001 0.022488 0.000000 0.000000 -0.712571 -0.008160 1.310730 0.003995 -0.010985 0.018096 86.199494 49.487517 -89.646574 0.052819 -0.000008 -0.000074 -2.573036 -0.739918 0.463023 0.032489 0.000042 -0.000035 4.590284 -0.705069 -0.717111 -0.025383 0.124268 0.007699 46.459753 -2.823744 -15.193129 -0.136062 0.000000 0.000000 28.991793 11.784450 4.649246 -0.225446 -0.000000 0.000000 3.192777 -43.408369 24.485199 -0.256325 0.000003 0.000015 -1.006365 71.470813 1.039577 -0.074229 0.008101 0.022282 0.012967 0.667618 -1.112105 -0.037712 0.000000 -0.000001 1.679196 1.282863 -0.674521 -0.023218 0.000022 0.000021 0.334983 1.286450 0.711000 -0.069261 0.008101 -0.033073 -0.000006 -0.000043 -0.000001 -0.035643 -0.000000 0.000000 -0.000002 0.000001 0.000000 -0.020542 -0.000000 -0.000000 -0.890203 -0.008562 1.101171 -0.075240 0.008101 0.002320 -0.000001 -0.000014 0.000006 -0.042007 -0.000000 0.000000 -0.000003 0.000039 0.000012 -0.025915 -0.000000 0.000000 -0.000003 0.000037 0.000012 -0.074383 0.008101 -0.015403 -0.000001 0.000011 -0.000004 -0.038967 0.000000 0.000000 -0.000004 0.000005 0.000002 -0.022488 0.000000 -0.000000 0.712571 -0.008160 -1.310730 -0.003995 -0.010985 0.018096 -86.199433 49.487517 89.646581 -0.052819 -0.000008 -0.000074 2.573036 -0.739911 -0.463023 -0.032489 0.000042 -0.000035 -4.590285 -0.705066 0.717110 0.087143 -0.045243 0.001548 -7.676477 -8.555670 -1.148774 -0.000000 -0.394432 -0.000001 -1.033800 37.790655 1.685095 -0.000000 -0.466446 0.003058 3.217385 -13.606906 13.798955 -0.000000 -0.079218 0.140851 -0.000001 0.248285 -0.000002 -0.087143 -0.045243 0.001548 -11.014462 -14.913503 -2.867696 0.000000 -0.394432 -0.000001 -19.106349 48.675565 24.762407 -0.000000 -0.466446 0.003058 2.198650 -10.884534 11.887257 -0.000000 -0.079218 0.140851 0.000001 0.248285 0.000000 
0.112358 1.001247 0.031459 2.716956 8.272974 18.197948 0.000000 0.059888 0.006665 2.987224 7.946064 1.534129 0.000000 0.125681 -0.015911 3.141367 0.838308 -0.825500 -0.000000 0.122768 -0.001652 0.000002 -12.397634 -0.000019 -0.000000 0.155865 0.008735 -1.892969 19.628896 1.476834 -0.000000 0.095969 -0.000410 -6.095544 7.500361 16.825071 0.015267 0.059218 0.021494 -1.701130 3.586989 21.747932 -0.015267 0.059218 0.021494 1.701135 3.587005 -21.747922 0.025383 0.124268 0.007699 53.288333 -2.949172 13.328752 0.136062 -0.000000 0.000000 -32.561800 -6.615579 -37.234360 0.225446 -0.000000 -0.000000 -14.667923 38.637011 -69.073450 0.256325 0.000003 0.000015 0.688667 22.597167 -14.504387 0.074229 0.008101 0.022282 -0.012967 0.667619 1.112106 0.037712 0.000000 -0.000001 -1.679191 1.282861 0.674522 0.023218 0.000022 0.000021 -0.334982 1.286451 -0.711000 0.069261 0.008101 -0.033073 0.000003 -0.000043 0.000001 0.035643 -0.000000 0.000000 0.000003 0.000003 0.000003 0.020542 -0.000000 -0.000000 0.890206 -0.008560 -1.101172 0.075240 0.008101 0.002320 -0.000002 -0.000011 -0.000007 0.042007 -0.000000 -0.000000 0.000001 0.000041 -0.000010 0.025915 0.000000 0.000000 0.000002 0.000038 -0.000009 0.074383 0.008101 -0.015403 0.000000 0.000013 0.000001 0.038967 0.000000 -0.000000 0.000004 0.000000 0.000003 0.022488 -0.000000 -0.000000 -0.712569 -0.008157 1.310733 0.003995 -0.010985 0.018096 86.199487 49.487521 -89.646574 0.052819 -0.000008 -0.000074 -2.573037 -0.739912 0.463024 0.032489 0.000042 -0.000035 4.590284 -0.705068 -0.717106 -0.025383 0.124268 0.007699 47.688569 -2.888249 -14.976651 -0.136062 -0.000000 -0.000000 29.084783 11.427072 4.467943 -0.225446 0.000000 0.000000 5.652500 -61.043668 24.600262 -0.256325 0.000003 0.000015 23.150434 86.448762 -23.917724 -0.074229 0.008101 0.022282 0.012968 0.667616 -1.112105 -0.037712 -0.000000 -0.000001 1.679194 1.282858 -0.674522 -0.023218 0.000022 0.000021 0.334982 1.286453 0.710999 -0.069261 0.008101 -0.033073 -0.000006 -0.000047 -0.000000 -0.035643 0.000000 0.000000 -0.000003 0.000004 0.000001 -0.020542 -0.000000 0.000000 -0.890204 -0.008559 1.101173 -0.075240 0.008101 0.002320 0.000000 -0.000011 0.000007 -0.042007 -0.000000 0.000000 -0.000001 0.000039 0.000012 -0.025915 -0.000000 0.000000 -0.000002 0.000042 0.000013 -0.074383 0.008101 -0.015403 -0.000000 0.000013 -0.000004 -0.038967 0.000000 -0.000000 -0.000002 0.000003 0.000001 -0.022488 0.000000 -0.000000 0.712572 -0.008155 -1.310729 -0.003995 -0.010985 0.018096 -86.199439 49.487521 89.646581 -0.052819 -0.000008 -0.000074 2.573041 -0.739915 -0.463022 -0.032489 0.000042 -0.000035 -4.590284 -0.705067 0.717110 0.087143 -0.045243 0.001548 -7.793668 -7.169683 -0.978677 0.000000 -0.394432 -0.000001 -0.309542 37.317124 0.511943 -0.000000 -0.466446 0.003058 2.668431 -15.001623 10.457719 0.000000 -0.079218 0.140851 -0.000003 0.248283 -0.000001 -0.087143 -0.045243 0.001548 -11.486444 -12.133836 -2.445751 -0.000000 -0.394432 -0.000001 -17.311533 46.981671 23.088744 -0.000000 -0.466446 0.003058 1.966127 -14.485709 8.015397 -0.000000 -0.079218 0.140851 0.000003 0.248283 0.000000 
